<svg width="24" height="24" viewBox="0 0 24 24" fill="none" xmlns="http://www.w3.org/2000/svg">
<g clip-path="url(#clip0_20_4173)">
<path d="M16.7729 0.0119953C16.7219 -0.0450047 14.8844 0.0344953 13.2854 1.77C11.6864 3.504 11.9324 5.493 11.9684 5.544C12.0044 5.595 14.2484 5.6745 15.6809 3.657C17.1134 1.6395 16.8239 0.0704953 16.7729 0.0119953ZM21.7439 17.6115C21.6719 17.4675 18.2564 15.7605 18.5744 12.4785C18.8924 9.19499 21.0869 8.295 21.1214 8.1975C21.1559 8.1 20.2259 7.0125 19.2404 6.462C18.5168 6.07387 17.716 5.85151 16.8959 5.811C16.7339 5.8065 16.1714 5.6685 15.0149 5.98499C14.2529 6.1935 12.5354 6.8685 12.0629 6.8955C11.5889 6.9225 10.1789 6.11249 8.66239 5.89799C7.69189 5.71049 6.66289 6.0945 5.92639 6.39C5.19139 6.684 3.79339 7.521 2.81539 9.7455C1.83739 11.9685 2.34889 15.4905 2.71489 16.5855C3.08089 17.679 3.65239 19.4715 4.62439 20.7795C5.48839 22.2555 6.63439 23.28 7.11289 23.628C7.59139 23.976 8.94139 24.207 9.87739 23.7285C10.6304 23.2665 11.9894 23.001 12.5264 23.0205C13.0619 23.04 14.1179 23.2515 15.1994 23.829C16.0559 24.1245 16.8659 24.0015 17.6774 23.6715C18.4889 23.34 19.6634 22.083 21.0344 19.5345C21.5549 18.3495 21.7919 17.709 21.7439 17.6115Z" fill="black"/>
<path d="M16.7729 0.0119953C16.7219 -0.0450047 14.8844 0.0344953 13.2854 1.77C11.6864 3.504 11.9324 5.493 11.9684 5.544C12.0044 5.595 14.2484 5.6745 15.6809 3.657C17.1134 1.6395 16.8239 0.0704953 16.7729 0.0119953ZM21.7439 17.6115C21.6719 17.4675 18.2564 15.7605 18.5744 12.4785C18.8924 9.19499 21.0869 8.295 21.1214 8.1975C21.1559 8.1 20.2259 7.0125 19.2404 6.462C18.5168 6.07387 17.716 5.85151 16.8959 5.811C16.7339 5.8065 16.1714 5.6685 15.0149 5.98499C14.2529 6.1935 12.5354 6.8685 12.0629 6.8955C11.5889 6.9225 10.1789 6.11249 8.66239 5.89799C7.69189 5.71049 6.66289 6.0945 5.92639 6.39C5.19139 6.684 3.79339 7.521 2.81539 9.7455C1.83739 11.9685 2.34889 15.4905 2.71489 16.5855C3.08089 17.679 3.65239 19.4715 4.62439 20.7795C5.48839 22.2555 6.63439 23.28 7.11289 23.628C7.59139 23.976 8.94139 24.207 9.87739 23.7285C10.6304 23.2665 11.9894 23.001 12.5264 23.0205C13.0619 23.04 14.1179 23.2515 15.1994 23.829C16.0559 24.1245 16.8659 24.0015 17.6774 23.6715C18.4889 23.34 19.6634 22.083 21.0344 19.5345C21.5549 18.3495 21.7919 17.709 21.7439 17.6115Z" fill="black"/>
</g>
<defs>
<clipPath id="clip0_20_4173">
<rect width="24" height="24" fill="white"/>
</clipPath>
</defs>
</svg>
