<svg width="64" height="105" viewBox="0 0 64 105" fill="none" xmlns="http://www.w3.org/2000/svg">
<rect x="0.5" y="0.5" width="63" height="104" rx="4.5" stroke="#9747FF" stroke-dasharray="10 5"/>
<rect x="23" y="23" width="18" height="18" rx="3" stroke="#096DE2" stroke-width="2"/>
<rect x="22" y="63" width="20" height="20" rx="4" fill="#096DE2"/>
<path d="M30.5775 76.1675C30.3775 76.1675 30.1875 76.0875 30.0475 75.9475L27.2175 73.1175C26.9275 72.8275 26.9275 72.3475 27.2175 72.0575C27.5075 71.7675 27.9875 71.7675 28.2775 72.0575L30.5775 74.3575L35.7175 69.2175C36.0075 68.9275 36.4875 68.9275 36.7775 69.2175C37.0675 69.5075 37.0675 69.9875 36.7775 70.2775L31.1075 75.9475C30.9675 76.0875 30.7775 76.1675 30.5775 76.1675Z" fill="#FEFEFE"/>
</svg>
