<svg width="35" height="35" viewBox="0 0 35 35" fill="none" xmlns="http://www.w3.org/2000/svg">
<path fill-rule="evenodd" clip-rule="evenodd" d="M24.3034 2.93182C26.4012 2.80071 28.4699 3.52912 30.0288 4.95681C31.4565 6.51561 32.1849 8.58431 32.0683 10.6967V24.3035C32.1995 26.4159 31.4565 28.4846 30.0433 30.0434C28.4845 31.471 26.4012 32.1995 24.3034 32.0683H10.6965C8.58411 32.1995 6.5154 31.471 4.95658 30.0434C3.52888 28.4846 2.80046 26.4159 2.93158 24.3035V10.6967C2.80046 8.58431 3.52888 6.51561 4.95658 4.95681C6.5154 3.52912 8.58411 2.80071 10.6965 2.93182H24.3034ZM16.0136 24.566L25.8182 14.7324C26.7068 13.8291 26.7068 12.3723 25.8182 11.4837L23.9243 9.58978C23.021 8.68655 21.5642 8.68655 20.661 9.58978L19.6849 10.5804C19.5392 10.7261 19.5392 10.9738 19.6849 11.1194C19.6849 11.1194 22.0013 13.4212 22.045 13.4795C22.2052 13.6543 22.3072 13.8874 22.3072 14.1496C22.3072 14.6741 21.8847 15.1112 21.3457 15.1112C21.098 15.1112 20.8649 15.0092 20.7047 14.8489L18.2717 12.4306C18.1552 12.314 17.9512 12.314 17.8347 12.4306L10.8856 19.3797C10.4048 19.8604 10.128 20.5014 10.1135 21.1861L10.026 24.6388C10.026 24.8282 10.0843 25.003 10.2154 25.1341C10.3465 25.2652 10.5214 25.3381 10.7108 25.3381H14.1343C14.8336 25.3381 15.5038 25.0613 16.0136 24.566Z" fill="#4A90E2"/>
</svg>
