<svg width="24" height="24" viewBox="0 0 24 24" fill="none" xmlns="http://www.w3.org/2000/svg">
<path d="M19.36 8.99998V6.63998C19.36 6.10955 19.1493 5.60084 18.7743 5.22577C18.3992 4.85069 17.8905 4.63998 17.36 4.63998H15.05L13.41 2.99998C13.0353 2.62748 12.5284 2.4184 12 2.4184C11.4717 2.4184 10.9648 2.62748 10.59 2.99998L9.00004 4.63998H6.64004C6.10961 4.63998 5.6009 4.85069 5.22583 5.22577C4.85076 5.60084 4.64004 6.10955 4.64004 6.63998V8.99998L3.00004 10.59C2.62754 10.9647 2.41846 11.4716 2.41846 12C2.41846 12.5284 2.62754 13.0353 3.00004 13.41L4.64004 15.05V17.36C4.64004 17.8904 4.85076 18.3991 5.22583 18.7742C5.6009 19.1493 6.10961 19.36 6.64004 19.36H9.00004L10.59 21C10.9648 21.3725 11.4717 21.5816 12 21.5816C12.5284 21.5816 13.0353 21.3725 13.41 21L15.05 19.36H17.36C17.8905 19.36 18.3992 19.1493 18.7743 18.7742C19.1493 18.3991 19.36 17.8904 19.36 17.36V15.05L21 13.41C21.3725 13.0353 21.5816 12.5284 21.5816 12C21.5816 11.4716 21.3725 10.9647 21 10.59L19.36 8.99998Z" fill="#2196F3"/>
<path d="M11.2499 14.4999C11.1183 14.5007 10.9878 14.4755 10.866 14.4257C10.7442 14.3759 10.6333 14.3026 10.5399 14.2099L8.9999 12.7099C8.8116 12.5216 8.70581 12.2662 8.70581 11.9999C8.70581 11.7336 8.8116 11.4782 8.9999 11.2899C9.18821 11.1016 9.4436 10.9958 9.7099 10.9958C9.9762 10.9958 10.2316 11.1016 10.4199 11.2899L11.2099 12.0899L13.4999 9.78993C13.6882 9.59101 13.9478 9.47505 14.2216 9.46755C14.4954 9.46005 14.761 9.56162 14.9599 9.74993C15.1588 9.93823 15.2748 10.1978 15.2823 10.4716C15.2898 10.7454 15.1882 11.011 14.9999 11.2099L11.9999 14.2099C11.9018 14.3075 11.7844 14.3837 11.6553 14.4336C11.5262 14.4836 11.3882 14.5061 11.2499 14.4999Z" fill="white"/>
</svg>
