<svg width="24" height="24" viewBox="0 0 24 24" fill="none" xmlns="http://www.w3.org/2000/svg">
<g clip-path="url(#clip0_537_6523)">
<path d="M12 0C5.36761 0 0 5.367 0 12C0 18.6323 5.367 24 12 24C18.6324 24 24 18.633 24 12C24 5.36761 18.633 0 12 0ZM12 22.3256C6.30647 22.3256 1.67442 17.6936 1.67442 12C1.67442 6.30642 6.30647 1.67442 12 1.67442C17.6936 1.67442 22.3256 6.30642 22.3256 12C22.3256 17.6936 17.6936 22.3256 12 22.3256Z" fill="black"/>
<path d="M11.645 15.184C10.9815 15.184 10.4445 15.7368 10.4445 16.4002C10.4445 17.0478 10.9657 17.6165 11.645 17.6165C12.3242 17.6165 12.8612 17.0478 12.8612 16.4002C12.8612 15.7368 12.3083 15.184 11.645 15.184ZM11.8503 5.97513C9.71784 5.97513 8.73853 7.23883 8.73853 8.09177C8.73853 8.7078 9.25978 8.99214 9.68624 8.99214C10.5392 8.99214 10.1917 7.77583 11.8029 7.77583C12.5926 7.77583 13.2245 8.12336 13.2245 8.84997C13.2245 9.70291 12.3399 10.1926 11.8187 10.6348C11.3606 11.0297 10.7604 11.6773 10.7604 13.0358C10.7604 13.8571 10.9815 14.0941 11.6291 14.0941C12.4031 14.0941 12.561 13.7466 12.561 13.4464C12.561 12.625 12.5768 12.1512 13.4456 11.472C13.8721 11.1403 15.2147 10.0661 15.2147 8.58138C15.2147 7.09661 13.8721 5.97513 11.8503 5.97513Z" fill="black"/>
</g>
<defs>
<clipPath id="clip0_537_6523">
<rect width="24" height="24" fill="white"/>
</clipPath>
</defs>
</svg>
