<svg width="48" height="48" viewBox="0 0 48 48" fill="none" xmlns="http://www.w3.org/2000/svg">
<rect x="0.5" y="0.5" width="47" height="47" rx="7.5" stroke="#096DE2"/>
<path d="M17 14H31C31.5523 14 32 14.4477 32 15V34.1433C32 34.4194 31.7761 34.6434 31.5 34.6434C31.4061 34.6434 31.314 34.6168 31.2344 34.5669L24 30.0313L16.7656 34.5669C16.5316 34.7136 16.2231 34.6429 16.0764 34.4089C16.0265 34.3293 16 34.2373 16 34.1433V15C16 14.4477 16.4477 14 17 14ZM30 16H18V31.4324L24 27.6707L30 31.4324V16Z" fill="#096DE2"/>
</svg>
