<svg width="24" height="24" viewBox="0 0 24 24" fill="none" xmlns="http://www.w3.org/2000/svg">
<path fill-rule="evenodd" clip-rule="evenodd" d="M11.8445 21.6617C8.15273 21.6617 5 21.0872 5 18.7864C5 16.4856 8.13273 14.3617 11.8445 14.3617C15.5364 14.3617 18.6891 16.465 18.6891 18.7658C18.6891 21.0657 15.5564 21.6617 11.8445 21.6617Z" stroke="#212121" stroke-width="1.28571" stroke-linecap="round" stroke-linejoin="round"/>
<path fill-rule="evenodd" clip-rule="evenodd" d="M11.8375 11.1734C14.2602 11.1734 16.2239 9.20977 16.2239 6.78704C16.2239 4.36431 14.2602 2.39977 11.8375 2.39977C9.41477 2.39977 7.45022 4.36431 7.45022 6.78704C7.44204 9.20158 9.39204 11.1652 11.8066 11.1734C11.8175 11.1734 11.8275 11.1734 11.8375 11.1734Z" stroke="#212121" stroke-width="1.28571" stroke-linecap="round" stroke-linejoin="round"/>
</svg>
